<?xml version="1.0" encoding="iso-8859-1"?>
<!-- Generator: Adobe Illustrator 19.0.0, SVG Export Plug-In . SVG Version: 6.00 Build 0)  -->
<svg version="1.1" id="Capa_1" xmlns="http://www.w3.org/2000/svg" xmlns:xlink="http://www.w3.org/1999/xlink" x="0px" y="0px"
	 viewBox="0 0 512 512" style="enable-background:new 0 0 512 512;" xml:space="preserve">
<path style="fill:#555A66;" d="M106,270c-8.291,0-15-6.709-15-15v-30c0-8.291,6.709-15,15-15s15,6.709,15,15v30
	C121,263.291,114.291,270,106,270z"/>
<path style="fill:#707789;" d="M357.1,198.6l-6.599,10.199L256,197.999l-117.599-13.5L100.3,90.3L256,70.8l75-9.6
	c-1.8,25.201-3.6,50.7-3.6,50.7L357.1,198.6z"/>
<path style="fill:#555A66;" d="M357.1,198.6l-6.599,10.199L256,197.999V70.8l75-9.6c-1.8,25.201-3.6,50.7-3.6,50.7L357.1,198.6z"/>
<g>
	<path style="fill:#FEA832;" d="M135,392H75c-8.291,0-15-6.709-15-15v-60c0-8.291,6.709-15,15-15h60c8.291,0,15,6.709,15,15v60
		C150,385.291,143.291,392,135,392z"/>
	<path style="fill:#FEA832;" d="M286,302h-60c-8.401,0-15,6.599-15,15v60c0,8.399,6.599,15,15,15h60c8.401,0,15-6.601,15-15v-60
		C301,308.599,294.401,302,286,302z"/>
</g>
<g>
	<path style="fill:#FF873C;" d="M437,392h-60c-8.291,0-15-6.709-15-15v-60c0-8.291,6.709-15,15-15h60c8.291,0,15,6.709,15,15v60
		C452,385.291,445.291,392,437,392z"/>
	<path style="fill:#FF873C;" d="M301,317v60c0,8.399-6.599,15-15,15h-30v-90h30C294.401,302,301,308.599,301,317z"/>
</g>
<path style="fill:#555A66;" d="M437,362H75c-41.4,0-75,33.6-75,75s33.6,75,75,75h362c41.4,0,75-33.6,75-75S478.4,362,437,362z"/>
<path style="fill:#3C3A41;" d="M512,437c0,41.4-33.6,75-75,75H256V362h181C478.4,362,512,395.6,512,437z"/>
<rect x="75" y="392" style="fill:#707789;" width="362" height="90"/>
<rect x="256" y="392" style="fill:#555A66;" width="181" height="90"/>
<path style="fill:#FF873C;" d="M361,210c-2.563,0-5.098-0.161-7.588-0.469C323.529,205.752,301,180.161,301,150V15
	c0-8.291,6.709-15,15-15h90c8.291,0,15,6.709,15,15v135C421,183.091,394.091,210,361,210z"/>
<path style="fill:#FEA832;" d="M106,240c-24.814,0-45-20.186-45-45v-60c0-22.632,16.904-41.821,39.331-44.648
	C127.841,86.924,150.985,108.296,151,135v60C151,219.814,130.814,240,106,240z"/>
<path style="fill:#CDD2E1;" d="M75,392c-24.814,0-45,20.186-45,45s20.186,45,45,45s45-20.186,45-45S99.814,392,75,392z"/>
<path style="fill:#BEC3D2;" d="M437,392c-24.814,0-45,20.186-45,45s20.186,45,45,45s45-20.186,45-45S461.814,392,437,392z"/>
<g>
	<circle style="fill:#555A66;" cx="196" cy="437" r="15"/>
	<circle style="fill:#555A66;" cx="75" cy="437" r="15"/>
	<path style="fill:#555A66;" d="M271,437c0,8.399-6.599,15-15,15s-15-6.601-15-15c0-8.401,6.599-15,15-15S271,428.599,271,437z"/>
</g>
<g>
	<path style="fill:#3C3A41;" d="M316,422c8.284,0,16,6.716,16,15s-7.716,15-16,15s-15-6.716-15-15S307.716,422,316,422z"/>
	<circle style="fill:#3C3A41;" cx="437" cy="437" r="15"/>
	<path style="fill:#3C3A41;" d="M271,437c0,8.399-6.599,15-15,15v-30C264.401,422,271,428.599,271,437z"/>
</g>
<g>
</g>
<g>
</g>
<g>
</g>
<g>
</g>
<g>
</g>
<g>
</g>
<g>
</g>
<g>
</g>
<g>
</g>
<g>
</g>
<g>
</g>
<g>
</g>
<g>
</g>
<g>
</g>
<g>
</g>
</svg>
